<?xml version="1.0" encoding="UTF-8"?>
<svg id="Layer_1" xmlns="http://www.w3.org/2000/svg" version="1.1" viewBox="0 0 300 50.5">
  <!-- Generator: Adobe Illustrator 29.5.1, SVG Export Plug-In . SVG Version: 2.1.0 Build 141)  -->
  <defs>
    <style>
      .st0 {
        fill: #fff;
      }
    </style>
  </defs>
  <path class="st0" d="M299.75,49.19c-2.15-.46-16.39.61-16.97,0-.22-.22.35-2-.25-1.99-9.48,6.9-26.62-.71-20.3-13.21,3.64-7.2,13.64-7.62,20.56-5.6.67-5.56-3.48-7.87-8.62-6.82-1.7.35-3.03,2.23-4.13,2.37-2.03.27-6.36-1.6-8.71-1.5,2.93-10.07,23.97-10.75,29.97-4.72.73.74,2.98,4.72,2.98,5.46v17.58c0,.27,4.82-.2,5.49,0v8.42ZM282.67,36.42c-.2-.33-3.21-1.72-3.85-1.86-10.49-2.26-8.1,12.35,1.32,6.81,1.58-.93,3.66-3.03,2.53-4.95Z"/>
  <path class="st0" d="M142.01,50.18c-22.15-2.64-20.47-34.37.76-36.13,12.62-1.05,20.85,8.15,20.21,20.29h-25.46c.45,7.08,6.52,10.31,12.82,7.02,1.06-.55,3.11-2.49,3.87-2.53,2.22-.13,6.26,2.48,8.77,2.45-2.59,4.65-8.74,8.28-13.98,8.91-1.64.2-5.35.2-6.99,0ZM151.5,27.9c-1.03-8.28-13.02-8.73-13.48,0h13.48Z"/>
  <path class="st0" d="M41.68.17v8.42l-6.48.24,10.22,31.45c.88,1.05,4.75.24,6.25.49v8.42h-24.46v-8.42h5.99s-2.02-7.9-2.02-7.9c-1.88.22-12.47-.49-13.01.27-1.05,1.48-1.16,5.83-2.44,7.62h6.49v8.42H.25v-8.42l6.05-.29L15.64,9.25c.27-.91,0-.58-.66-.66-1.82-.2-3.9.14-5.75,0V.17h32.45ZM28.7,24.93l-3.74-13.87-4.24,13.87h7.99Z"/>
  <path class="st0" d="M168.47,15.27c.2-.64,1.14-.7,1.72-.77,2.4-.28,11.83-.37,14,.02,1.68.31,1.23,1.61,1.25,2.97,5.48-3.77,13.89-5.21,18.18,1.02,3.74,5.43,1.47,21.45,2.28,22.25.23.23,4.99-.53,4.99.74v7.67h-16.97v-23.52c0-2.76-7.64-1.9-8.39.59-.25.82-.62,14-.1,14.51.19.19,4.49-.47,4.49.74v7.67h-21.46v-7.67c0-1.3,4.99-.48,4.99-.74v-17.82c0-.25-4.99.25-4.99,0,0-1.67-.35-6.55,0-7.67Z"/>
  <path class="st0" d="M214.39,15.27c.2-.64,1.14-.7,1.72-.77,2.36-.27,11.89-.37,14,.02,2.29.43.46,3.57,1.99,2.97,1.05-.42,2.5-1.79,4.11-2.36,7.7-2.73,14.58.78,15.56,9.1.3,2.54-.54,15.95.05,16.54.23.23,4.99-.53,4.99.74v7.67h-16.47v-23.02c0-.22-1.14-1.81-1.49-1.98-1.76-.85-7.49.87-7.49,1.98v14.61c0,.22,4.49-.22,4.49,0v8.42h-21.46v-7.67c0-1.33,5.49-.46,5.49-.74v-17.82h-5.49c.38-2-.52-6,0-7.67Z"/>
  <path class="st0" d="M70.38,14.53c1.15.35.74,2.19.25,2.97.45.39,3.69-1.79,4.6-2.12,8.3-3.05,15.36.32,16.31,9.36.26,2.47-.51,15.46.06,16.03.23.23,4.99-.53,4.99.74v7.67h-16.47v-22.03c0-.16-.8-2.32-.96-2.51-1.36-1.67-7.34-.35-7.93,1.62-.25.82-.62,14-.1,14.51.19.19,4.49-.47,4.49.74v7.67h-21.46v-7.67c0-1.33,5.49-.46,5.49-.74v-17.82h-5.49v-7.67c0-.05.7-.74.75-.74,3.05,0,13.46-.6,15.47,0Z"/>
  <path class="st0" d="M115.06,14.53h5.99v8.42h-5.99v16.59c0,2.01,4.63,1.36,5.99.74v7.92c-5.11,1.72-12.66,3.21-16.19-2.01-.23-.34-1.28-2.07-1.28-2.2v-21.04c0-.22-4.49.22-4.49,0v-7.67c0-1.22,4.3-.55,4.49-.74.17-.17-.15-3.33.01-4.2.39-2.08,9.37-7.03,11.47-8.68v12.87Z"/>
</svg>