<?xml version="1.0" encoding="UTF-8"?>
<svg id="Layer_1" xmlns="http://www.w3.org/2000/svg" version="1.1" viewBox="0 0 545.74 727">
  <!-- Generator: Adobe Illustrator 29.5.1, SVG Export Plug-In . SVG Version: 2.1.0 Build 141)  -->
  <defs>
    <style>
      .st0 {
        fill: #fefefe;
      }
    </style>
  </defs>
  <path class="st0" d="M451.31.87v90.34c0,.1-1.21,1.3-1.3,1.3h-67.87l2.59,10.81c10.21,29.34,18.4,57.86,27.67,87.32,5.86,18.68,12.28,37.43,18.16,56.2,6.05,19.32,12.14,37.92,18.16,57.06,15.25,48.55,29.97,95.05,44.96,143.53l2.16,3.03h44.1c.1,0,1.3,1.21,1.3,1.3v89.91c0,.1-1.21,1.3-1.3,1.3h-244.68c-.16,0-2.16-2.01-2.16-2.16v-89.05c0-.1,1.21-1.3,1.3-1.3h67.87l-25.94-92.51h-139.19l-28.53,92.51h56.63c.1,0,1.3,1.21,1.3,1.3v89.05c0,.28-1.77,1.58-2.16,2.16H2.16l-2.16-2.16v-88.18l.87-2.16h66.57L172.05,92.51h-81.27V1.3C90.78-.1,90.78,0,92.08,0h357.07c2.11,0,2.16-.11,2.16.87h0ZM270.62,118.44c-1.35-.41-1.36.15-1.73,1.3-3.2,9.83-5.77,19.58-8.65,29.39-3.29,11.2-7.7,23.19-10.38,34.58-1.21,5.16-3.54,11.64-5.19,17.29-5.94,20.35-13.07,41.6-19.03,62.26-1.1,3.81-1.52,7.97-2.59,11.24-.11.35-.75.52-.87.87-.41,1.3.3,2.26,1.3,3.03.93.25,1.25-.72,2.59-.87,26.62-2.71,57.64,2.03,84.73,0l.87.87,2.16-1.3-43.23-158.65h0l.02-.02h0Z"/>
  <path class="st0" d="M.87,632.01h539.07c.1,0,1.3,1.21,1.3,1.3v89.05c0,.1-1.21,1.3-1.3,1.3H3.03c-.18,0-2.92-1.75-3.03-2.16v-87.32l.87-2.16h0Z"/>
</svg>